<?xml version="1.0" encoding="utf-8"?>
<!-- Generator: Adobe Illustrator 19.0.0, SVG Export Plug-In . SVG Version: 6.00 Build 0)  -->
<svg version="1.1" id="Layer_1" xmlns="http://www.w3.org/2000/svg" xmlns:xlink="http://www.w3.org/1999/xlink" x="0px" y="0px"
	 viewBox="0 0 512 512" style="enable-background:new 0 0 512 512;" xml:space="preserve">
<style type="text/css">
	.st0{fill:#E65A2E;}
	.st1{fill:#CC5028;}
	.st2{fill:#263740;}
	.st3{fill:#1F2C33;}
	.st4{fill:#446373;}
	.st5{fill:#3C5866;}
	.st6{fill:#FFD464;}
	.st7{fill:#242424;}
</style>
<g id="XMLID_1_">
	<circle id="XMLID_3_" class="st0" cx="256" cy="255.6" r="255.6"/>
	<path id="XMLID_4_" class="st1" d="M481.7,375.9c0-0.8-0.8-1.6-0.8-2.4s-0.8-1.6-0.8-2.4s-0.8-1.6-0.8-2.4s-0.8-1.6-0.8-2.4
		s-0.8-1.6-0.8-2.4s-0.8-1.6-0.8-2.4s-0.8-1.6-0.8-2.4s-0.8-1.6-0.8-2.4s-0.8-1.6-0.8-2.4s-0.8-1.6-0.8-2.4c0-0.8-0.8-1.6-0.8-2.4
		s-0.8-1.6-0.8-2.4s-0.8-1.6-0.8-2.4s-0.8-1.6-0.8-2.4s-0.8-1.6-0.8-2.4s-0.8-1.6-0.8-2.4s-0.8-1.6-0.8-2.4s-0.8-1.6-0.8-2.4
		s-0.8-1.6-0.8-2.4s-0.8-1.6-0.8-2.4s-0.8-1.6-0.8-2.4s-0.8-1.6-0.8-2.4s-0.8-1.6-0.8-2.4s-0.8-1.6-0.8-2.4s-0.8-1.6-0.8-2.4
		s-0.8-1.6-0.8-2.4s-0.8-1.6-0.8-2.4s-0.8-1.6-0.8-2.4s-0.8-1.6-0.8-2.4s-0.8-1.6-0.8-2.4s-0.8-1.6-0.8-2.4s-0.8-1.6-0.8-2.4
		s-0.8-1.6-0.8-2.4s-0.8-1.6-0.8-2.4s-0.8-1.6-0.8-2.4c0-0.8-0.8-1.6-0.8-2.4s-0.8-1.6-0.8-2.4s-0.8-1.6-0.8-2.4s-0.8-1.6-0.8-2.4
		s-0.8-1.6-0.8-2.4s-0.8-1.6-0.8-2.4s-0.8-1.6-0.8-2.4s-0.8-1.6-0.8-2.4s-0.8-1.6-0.8-2.4s-0.8-1.6-0.8-2.4s-0.8-1.6-0.8-2.4
		s-0.8-1.6-0.8-2.4s-0.8-1.6-0.8-2.4s-0.8-1.6-0.8-2.4s-0.8-1.6-0.8-2.4s-0.8-1.6-0.8-2.4s-0.8-1.6-0.8-2.4s-0.8-1.6-0.8-2.4
		s-0.8-1.6-0.8-2.4s-0.8-1.6-0.8-2.4s-0.8-1.6-0.8-2.4s-0.8-1.6-0.8-2.4s-0.8-1.6-0.8-2.4s-0.8-1.6-0.8-2.4s-0.8-1.6-0.8-2.4
		s-0.8-1.6-0.8-2.4s-0.8-1.6-0.8-2.4s-0.8-1.6-0.8-2.4c0-0.8-0.8-1.6-0.8-2.4s-0.8-1.6-0.8-2.4s-0.8-1.6-0.8-2.4s-0.8-1.6-0.8-2.4
		s-0.8-1.6-0.8-2.4s-0.8-1.6-0.8-2.4c0-0.8-0.8-1.6-0.8-2.4s-0.8-1.6-0.8-2.4s-0.8-1.6-0.8-2.4s-0.8-1.6-0.8-2.4s-0.8-1.6-0.8-2.4
		s-0.8-1.6-0.8-2.4s-0.8-1.6-0.8-2.4s-0.8-1.6-0.8-2.4s-0.8-1.6-0.8-2.4s-0.8-1.6-0.8-2.4s-0.8-1.6-0.8-2.4s-0.8-1.6-0.8-2.4
		s-0.8-1.6-0.8-2.4s-0.8-1.6-0.8-2.4s-0.8-1.6-0.8-2.4s-0.8-1.6-0.8-2.4s-0.8-1.6-0.8-2.4s-0.8-1.6-0.8-2.4
		c-8.7-21.2-19.7-42.5-34.6-62.9c-3.1-3.9-7.9-4.7-11.8-3.1c-27.5,14.2-47.2,40.9-56.6,59c-3.1-2.4-6.3-4.7-9.4-6.3l0,0
		c-1.6-0.8-3.1-1.6-3.9-1.6l-0.8-0.8c-0.8,0-2.4-0.8-3.1-0.8c-0.8,0-1.6-0.8-2.4-0.8s-1.6,0-2.4-0.8c-0.8,0-2.4-0.8-3.1-0.8
		c-0.8,0-0.8,0-1.6,0c-1.6,0-2.4,0-3.9-0.8h-0.8c-1.6,0-3.1,0-4.7,0c-2.4,0-3.9,0-6.3,0l0,0c-11.8,0.8-21.2,4.7-29.9,11.8
		c-11.8-23.6-31.5-46.4-56.6-59c-0.8,0-1.6-0.8-2.4-0.8h-0.8c-0.8,0-1.6,0-2.4,0l0,0c-2.4,0-5.5,1.6-7.1,3.9
		c-51.9,71.6-59,151.8-59,191.9c0,12.6,2.4,24.4,7.1,35.4c0,0.8,0.8,1.6,0.8,2.4s0.8,1.6,0.8,2.4s0.8,1.6,0.8,2.4s0.8,1.6,0.8,2.4
		s0.8,1.6,0.8,2.4s0.8,1.6,0.8,2.4s0.8,1.6,0.8,2.4s0.8,1.6,0.8,2.4s0.8,1.6,0.8,2.4s0.8,1.6,0.8,2.4s0.8,1.6,0.8,2.4
		s0.8,1.6,0.8,2.4s0.8,1.6,0.8,2.4s0.8,1.6,0.8,2.4s0.8,1.6,0.8,2.4s0.8,1.6,0.8,2.4s0.8,1.6,0.8,2.4c0,0.8,0.8,1.6,0.8,2.4
		s0.8,1.6,0.8,2.4s0.8,1.6,0.8,2.4c0,0.8,0.8,1.6,0.8,2.4c0,0.8,0.8,1.6,0.8,2.4c0,0.8,0.8,1.6,0.8,2.4c0,0.8,0.8,1.6,0.8,2.4
		c0,0.8,0.8,1.6,0.8,2.4c0,0.8,0.8,1.6,0.8,2.4c0,0.8,0.8,1.6,0.8,2.4c0,0.8,0.8,1.6,0.8,2.4c0,0.8,0.8,1.6,0.8,2.4
		c0,0.8,0.8,1.6,0.8,2.4c0,0.8,0.8,1.6,0.8,2.4c0,0.8,0.8,1.6,0.8,2.4c0,0.8,0.8,1.6,0.8,2.4c0,0.8,0.8,1.6,0.8,2.4
		c0,0.8,0.8,1.6,0.8,2.4c0,0.8,0.8,1.6,0.8,2.4c0,0.8,0.8,1.6,0.8,2.4c0,0.8,0.8,1.6,0.8,2.4c0,0.8,0.8,1.6,0.8,2.4
		c0,0.8,0.8,1.6,0.8,2.4c0,0.8,0.8,1.6,0.8,2.4c0,0.8,0.8,1.6,0.8,2.4c0,0.8,0.8,1.6,0.8,2.4c0,0.8,0.8,1.6,0.8,2.4
		c0,0.8,0.8,1.6,0.8,2.4c0,0.8,0.8,1.6,0.8,2.4c0,0.8,0.8,1.6,0.8,2.4c0,0.8,0.8,1.6,0.8,2.4c0,0.8,0.8,1.6,0.8,2.4
		c0,0.8,0.8,1.6,0.8,2.4c0,0.8,0.8,1.6,0.8,2.4c0,0.8,0.8,1.6,0.8,2.4c0,0.8,0.8,1.6,0.8,2.4c0,0.8,0.8,1.6,0.8,2.4
		c0,0.8,0.8,1.6,0.8,2.4c0,0.8,0.8,1.6,0.8,2.4c0,0.8,0.8,1.6,0.8,2.4c0,0.8,0.8,1.6,0.8,2.4c0,0.8,0.8,1.6,0.8,2.4
		c0,0.8,0.8,1.6,0.8,2.4c0,0.8,0.8,1.6,0.8,2.4c0,0.8,0.8,1.6,0.8,2.4c0,0.8,0.8,1.6,0.8,2.4c0,0.8,0.8,1.6,0.8,2.4
		c0,0.8,0.8,1.6,0.8,2.4c0,0.8,0.8,1.6,0.8,2.4c0,0.8,0.8,1.6,0.8,2.4c0,0.8,0.8,1.6,0.8,2.4c0,0.8,0.8,1.6,0.8,1.6
		c27.5,10.2,57.4,15.7,88.9,15.7C353.5,511.2,438.5,456.2,481.7,375.9z"/>
	<path id="XMLID_5_" class="st2" d="M256,415.3c-77.9,0-163.6-49.5-163.6-123.5c0-40.1,7.1-120.3,59-191.9c3.1-3.9,7.9-4.7,11.8-3.1
		c27.5,14.2,47.2,40.9,56.6,59c10.2-7.9,22-11.8,36.2-11.8c14.2,0,26,3.9,36.2,11.8c9.4-18.1,28.3-44.8,56.6-59
		c3.9-2.4,9.4-0.8,11.8,3.1c51.9,71.6,59,151.8,59,191.9C419.6,365.7,333.9,415.3,256,415.3z"/>
	<path id="XMLID_6_" class="st3" d="M360.6,99.9c-3.1-3.9-7.9-4.7-11.8-3.1c-0.8,0-1.6,0.8-1.6,0.8c0.8,0.8,1.6,1.6,2.4,2.4
		c51.9,71.6,59,151.8,59,191.9c0,72.4-81.8,121.1-158.1,123.5c2.4,0,3.9,0,6.3,0c77.9,0,163.6-49.5,163.6-123.5
		C419.6,251.7,412.5,171.5,360.6,99.9z"/>
	<path id="XMLID_7_" class="st4" d="M115.2,353.9c30.7,38.5,87.3,61.3,140.8,61.3s110.1-22.8,140.8-61.3
		c-7.9-48.8-68.4-86.5-140.8-86.5C183.6,267.4,123.1,305.2,115.2,353.9z"/>
	<path id="XMLID_8_" class="st5" d="M267.8,415.3c2.4,0,4.7,0,7.1-0.8c0.8,0,1.6,0,2.4,0c3.1,0,6.3-0.8,8.7-1.6c0.8,0,0.8,0,1.6,0
		c2.4-0.8,5.5-0.8,7.9-1.6c0.8,0,1.6,0,2.4-0.8c2.4-0.8,4.7-0.8,7.9-1.6c0.8,0,0.8,0,1.6,0c3.1-0.8,6.3-1.6,8.7-2.4
		c0.8,0,0.8,0,1.6-0.8c2.4-0.8,4.7-1.6,7.9-2.4c0.8,0,1.6-0.8,1.6-0.8c5.5-2.4,11.8-4.7,17.3-7.1c0.8,0,0.8-0.8,1.6-0.8
		c2.4-1.6,4.7-2.4,7.1-3.9c0.8,0,0.8-0.8,1.6-0.8c5.5-3.1,11-6.3,15.7-10.2l0.8-0.8c2.4-1.6,4.7-3.1,7.1-5.5l0.8-0.8
		c4.7-3.9,9.4-7.9,13.4-12.6l0.8-0.8c1.6-2.4,3.9-3.9,5.5-6.3l0,0c-0.8-3.9-1.6-8.7-3.1-12.6c-26.7,44-86.5,71.6-143.1,73.9
		c1.6,0,3.9,0,5.5,0c3.1,0,6.3,0,8.7,0C266.2,415.3,267,415.3,267.8,415.3z"/>
	<path id="XMLID_9_" class="st3" d="M288.2,160.4c0.8-1.6,1.6-3.1,3.9-4.7c-12.6-10.2-26-11.8-36.2-11.8c-2.4,0-3.9,0-6.3,0
		C261.5,144.7,279.6,153.4,288.2,160.4z"/>
	<path id="XMLID_10_" class="st3" d="M212,159.7c2.4-2.4,4.7-2.4,7.9-3.9c-11.8-23.6-31.5-46.4-56.6-59c-3.1-1.6-7.1-1.6-10.2,0.8
		C180.5,111.7,202.5,142.4,212,159.7z"/>
	<circle id="XMLID_11_" class="st6" cx="208.8" cy="239.9" r="19.7"/>
	<circle id="XMLID_12_" class="st7" cx="208.8" cy="239.9" r="9.4"/>
	<circle id="XMLID_13_" class="st6" cx="299.3" cy="239.9" r="19.7"/>
	<circle id="XMLID_14_" class="st7" cx="299.3" cy="239.9" r="9.4"/>
	<path id="XMLID_15_" class="st7" d="M208,303.6c-0.8,0-0.8,0-1.6,0l-63.7-19.7c-2.4-0.8-3.1-3.1-2.4-4.7c0.8-2.4,3.1-3.1,4.7-2.4
		l63.7,19.7c2.4,0.8,3.1,3.1,2.4,4.7C211.2,302.8,209.6,303.6,208,303.6z"/>
	<path id="XMLID_16_" class="st7" d="M208,331.1c-0.8,0-0.8,0-1.6,0l-63.7-19.7c-2.4-0.8-3.1-3.1-2.4-4.7c0.8-2.4,3.1-3.1,4.7-2.4
		l63.7,19.7c2.4,0.8,3.1,3.1,2.4,4.7C211.2,330.3,209.6,331.1,208,331.1z"/>
	<path id="XMLID_17_" class="st7" d="M315.8,303.6c0.8,0,0.8,0,1.6,0l63.7-19.7c2.4-0.8,3.1-3.1,2.4-4.7c-0.8-2.4-3.1-3.1-4.7-2.4
		L315,296.5c-2.4,0.8-3.1,3.1-2.4,4.7C312.6,302.8,314.2,303.6,315.8,303.6z"/>
	<path id="XMLID_18_" class="st7" d="M315.8,331.1c0.8,0,0.8,0,1.6,0l63.7-19.7c2.4-0.8,3.1-3.1,2.4-4.7c-0.8-2.4-3.1-3.1-4.7-2.4
		L315,324c-2.4,0.8-3.1,3.1-2.4,4.7C312.6,330.3,314.2,331.1,315.8,331.1z"/>
	<path id="XMLID_19_" class="st4" d="M204.1,160.4c-5.5-10.2-20.4-33-43.3-46.4c-18.1,26-29.9,53.5-37.8,78.6
		C149.8,173.8,178.9,165.2,204.1,160.4z"/>
	<path id="XMLID_20_" class="st4" d="M306.3,160.4c5.5-10.2,20.4-33,43.3-46.4c18.1,26,29.9,53.5,37.8,78.6
		C361.4,173.8,331.5,165.2,306.3,160.4z"/>
	<path id="XMLID_21_" class="st7" d="M285.1,282.3c-0.8-1.6-2.4-3.1-4.7-3.1H256h-24.4c-2.4,0-3.9,1.6-4.7,3.1s-0.8,3.9,0.8,5.5
		l23.6,26l-18.1,18.1c-1.6,1.6-1.6,3.9,0,5.5c1.6,1.6,3.9,1.6,5.5,0l17.3-17.3l17.3,17.3c0.8,0.8,1.6,0.8,3.1,0.8
		c0.8,0,2.4,0,3.1-0.8c1.6-1.6,1.6-3.9,0-5.5l-18.1-18.1l23.6-26C285.9,286.3,285.9,284.7,285.1,282.3z"/>
</g>
</svg>
